<?xml version="1.0" encoding="utf-8"?>
<!-- Generator: Adobe Illustrator 16.0.0, SVG Export Plug-In . SVG Version: 6.00 Build 0)  -->
<!DOCTYPE svg PUBLIC "-//W3C//DTD SVG 1.1//EN" "http://www.w3.org/Graphics/SVG/1.1/DTD/svg11.dtd">
<svg version="1.1" id="Layer_1" xmlns="http://www.w3.org/2000/svg" xmlns:xlink="http://www.w3.org/1999/xlink" x="0px" y="0px"
	 width="28px" height="28px" viewBox="0 0 28 28" enable-background="new 0 0 28 28" xml:space="preserve">
<g>
	<path fill="#FFFFFF" d="M9.904,7.039c0,0,1.61-1.625,3.849-1.29c2.35,0.545,3.147,2.763,3.147,2.763s-1.075-1.659-3.297-1.925
		C11.51,6.335,9.904,7.039,9.904,7.039"/>
	<path fill="#211915" d="M20.827,22.64c0.033-0.229-0.023-0.483-0.085-0.753c-0.065-0.29-0.134-0.591-0.099-0.881
		c0.092-0.743,0.058-1.547,0.014-2.564c-0.011-0.25-0.021-0.516-0.032-0.798c-0.093-2.568-1.181-3.87-3.232-3.87
		c-0.342,0-0.715,0.036-1.143,0.111c-1.111,0.195-2.095,0.537-2.39,0.646c-0.417-0.146-2.183-0.73-3.642-0.73
		c-0.471,0-0.871,0.063-1.189,0.186c-1.477,0.57-1.838,1.964-1.964,4.178l-0.016,0.26c-0.102,1.699-0.171,3.351-0.001,3.925
		c-0.266-0.135-0.646-0.309-1.13-0.487c-0.873-0.322-3.273-1.516-3.895-3.159c-0.61-1.619-0.512-2.478-0.51-2.487l0.013-0.1
		L1.464,16.03c-0.013-0.017-1.233-1.667-0.882-3.386c0.114-0.56,0.206-0.933,0.275-1.18c0.243,0.471,0.649,1.135,1.178,1.54
		c0.763,0.585,1.174,0.647,1.316,0.647c0.024,0,0.035-0.002,0.035-0.002l0.418-0.057l-0.238-0.343
		c-0.012-0.018-1.255-1.753-1.37-3.318C2.14,9.164,2.129,8.696,2.133,8.42c0.256,0.112,0.656,0.234,1.267,0.313
		c0.279,0.036,0.539,0.053,0.794,0.053c0.511,0,0.928-0.069,1.369-0.145c0.246-0.042,0.5-0.084,0.786-0.118
		c0.263-0.03,0.544-0.046,0.835-0.046c0.941,0,1.699,0.163,1.707,0.164l1.18,0.258L9.092,8.189C9.047,8.156,7.955,7.37,6.664,7.029
		C5.882,6.823,5.278,6.741,4.92,6.709C5.217,6.08,6.068,4.693,7.925,4.337C8.172,4.286,8.43,4.262,8.692,4.262
		c2.257,0,4.466,1.838,4.488,1.856l0.746,0.628L13.58,5.835c-0.017-0.046-0.439-1.137-1.369-1.716
		c-0.334-0.209-0.646-0.345-0.912-0.434c0.525-0.183,1.256-0.377,1.988-0.377c0.323,0,0.623,0.038,0.892,0.113
		c2.201,0.616,2.675,2.271,2.694,2.343l0.108,0.4l0.306-0.279c0.01-0.008,0.929-0.818,2.622-0.818c0.303,0,0.615,0.025,0.93,0.076
		c1.111,0.179,1.622,0.786,2.072,1.321c0.341,0.405,0.664,0.789,1.176,0.816c0.06,0.004,0.119,0.005,0.178,0.005h0.002
		c-0.248,0.226-0.569,0.475-0.895,0.611c-0.95,0.38-1.499,0.61-1.506,0.613l-0.781,0.327l0.834,0.155
		c0.018,0.002,0.423,0.077,1.005,0.077c0.381,0,0.752-0.032,1.099-0.095c0.686-0.124,1.304-0.376,1.68-0.554
		c-0.007,0.627-0.062,1.836-0.336,2.599c-0.387,1.077-1.205,2.313-1.215,2.325l-0.388,0.583l0.671-0.199
		c0.054-0.017,1.315-0.399,1.983-1.26c0.298-0.385,0.487-0.741,0.605-1.026c0.276,0.65,0.627,1.78,0.365,2.896
		c-0.242,1.03-1.068,1.768-1.076,1.776l-0.093,0.082l0.008,0.123c0.001,0.024,0.131,2.468-1.195,3.664
		c-0.921,0.832-1.976,1.396-2.824,1.852c-0.436,0.231-0.812,0.434-1.06,0.618c-0.117,0.087-0.229,0.178-0.333,0.265
		C20.819,22.692,20.823,22.666,20.827,22.64"/>
	<path fill="#211915" d="M13.287,3.562c0.299,0,0.577,0.035,0.825,0.104c2.05,0.573,2.499,2.101,2.517,2.162l0.21,0.812l0.618-0.564
		c0.035-0.031,0.869-0.755,2.453-0.755c0.289,0,0.588,0.024,0.89,0.073c1.017,0.163,1.475,0.708,1.919,1.233
		c0.273,0.327,0.556,0.661,0.947,0.817c-0.128,0.088-0.259,0.165-0.388,0.219c-0.952,0.381-1.503,0.611-1.508,0.614l-1.563,0.655
		l1.667,0.309c0.018,0.004,0.445,0.082,1.051,0.082c0.396,0,0.781-0.033,1.143-0.099c0.518-0.094,0.999-0.258,1.374-0.41
		c-0.028,0.676-0.108,1.555-0.313,2.12c-0.376,1.048-1.179,2.259-1.188,2.271l-0.775,1.165l1.343-0.399
		c0.056-0.017,1.393-0.424,2.109-1.348c0.147-0.19,0.27-0.374,0.372-0.547c0.194,0.611,0.338,1.415,0.152,2.204
		c-0.221,0.941-0.99,1.638-0.996,1.643l-0.186,0.165l0.015,0.245c0.002,0.024,0.122,2.348-1.111,3.463
		c-0.898,0.809-1.938,1.368-2.774,1.815c-0.408,0.218-0.765,0.407-1.024,0.59c-0.019-0.122-0.046-0.243-0.076-0.37
		c-0.061-0.271-0.123-0.55-0.093-0.796c0.093-0.764,0.06-1.577,0.015-2.606c-0.011-0.25-0.021-0.516-0.032-0.796
		c-0.123-3.4-1.964-4.113-3.485-4.113c-0.356,0-0.744,0.038-1.186,0.115c-1.04,0.182-1.97,0.491-2.349,0.626
		c-0.546-0.186-2.227-0.715-3.639-0.715c-0.503,0-0.935,0.068-1.282,0.202c-1.183,0.458-1.951,1.353-2.125,4.398
		c-0.005,0.076-0.01,0.163-0.015,0.262c-0.093,1.549-0.141,2.768-0.075,3.505c-0.207-0.094-0.446-0.191-0.717-0.292
		c-0.842-0.31-3.157-1.456-3.744-3.012c-0.565-1.498-0.502-2.311-0.497-2.364l0.031-0.196l-0.128-0.171
		c-0.012-0.018-1.164-1.581-0.836-3.184c0.043-0.214,0.084-0.4,0.12-0.562c0.244,0.384,0.559,0.786,0.931,1.072
		c0.795,0.608,1.263,0.7,1.471,0.7c0.041,0,0.061-0.004,0.061-0.004l0.851-0.12l-0.491-0.68c-0.013-0.017-1.213-1.696-1.323-3.188
		C2.413,9.418,2.395,9.051,2.389,8.782c0.252,0.077,0.573,0.148,0.979,0.201c0.289,0.037,0.56,0.056,0.826,0.056
		c0.532,0,0.959-0.072,1.41-0.149c0.244-0.041,0.494-0.083,0.774-0.115c0.253-0.03,0.524-0.045,0.806-0.045
		c0.911,0,1.646,0.157,1.652,0.159l2.365,0.519L9.242,7.984c-0.047-0.034-1.177-0.848-2.513-1.2C6.16,6.635,5.683,6.549,5.32,6.5
		c0.382-0.649,1.187-1.633,2.652-1.914l0.004-0.001h0.003c0.227-0.047,0.468-0.07,0.714-0.07c2.162,0,4.304,1.779,4.325,1.797
		l1.493,1.26l-0.693-1.826c-0.019-0.05-0.471-1.218-1.473-1.841c-0.104-0.065-0.206-0.123-0.305-0.176
		C12.424,3.633,12.855,3.562,13.287,3.562 M13.287,3.056c-1.454,0-2.872,0.718-2.872,0.718h0.006c0.078,0,0.781,0.016,1.656,0.561
		c0.868,0.54,1.267,1.591,1.267,1.591s-2.271-1.917-4.651-1.917c-0.271,0-0.545,0.025-0.816,0.081
		c-2.555,0.49-3.325,2.853-3.325,2.853s0.788,0,2.048,0.332c1.26,0.333,2.346,1.12,2.346,1.12s-0.778-0.17-1.761-0.17
		c-0.276,0-0.568,0.014-0.865,0.048C5.512,8.365,4.963,8.532,4.194,8.532c-0.231,0-0.48-0.015-0.762-0.051
		c-1.225-0.157-1.522-0.49-1.522-0.49s-0.088,0.298,0.035,1.96c0.122,1.658,1.417,3.448,1.417,3.448s-0.003,0-0.01,0
		c-0.064,0-0.422-0.028-1.163-0.596c-0.821-0.63-1.347-1.978-1.347-1.978s-0.158,0.053-0.507,1.768
		c-0.379,1.856,0.927,3.588,0.927,3.588S1.14,17.075,1.787,18.79c0.647,1.716,3.045,2.939,4.043,3.308
		c0.997,0.367,1.542,0.718,1.542,0.718s0.002,0,0.003,0c0.015,0,0.08-0.024-0.079-0.528c-0.207-0.645-0.026-3.262,0.022-4.111
		c0.14-2.448,0.608-3.493,1.803-3.954c0.312-0.12,0.691-0.168,1.099-0.168c1.605,0,3.644,0.745,3.644,0.745s1.137-0.438,2.432-0.665
		c0.335-0.059,0.712-0.107,1.099-0.107c1.375,0,2.87,0.619,2.979,3.627c0.052,1.411,0.133,2.418,0.021,3.322
		c-0.076,0.61,0.242,1.229,0.184,1.626c-0.091,0.62-0.231,0.904-0.231,0.904s0.425-0.457,0.954-0.85
		c0.682-0.508,2.468-1.189,3.902-2.484s1.277-3.868,1.277-3.868s0.893-0.787,1.155-1.907c0.428-1.824-0.665-3.641-0.665-3.641
		s-0.087,0.7-0.753,1.558c-0.625,0.807-1.854,1.173-1.854,1.173s0.84-1.26,1.242-2.38c0.403-1.12,0.35-3.098,0.35-3.098
		s-0.909,0.525-1.977,0.718c-0.379,0.068-0.743,0.091-1.054,0.091c-0.566,0-0.959-0.073-0.959-0.073s0.542-0.228,1.505-0.613
		c0.753-0.314,1.453-1.154,1.453-1.154s-0.305,0.057-0.658,0.057c-0.055,0-0.109-0.002-0.165-0.004
		c-0.963-0.053-1.155-1.803-3.22-2.136c-0.346-0.056-0.67-0.08-0.971-0.08c-1.824,0-2.792,0.886-2.792,0.886s-0.49-1.855-2.87-2.521
		C13.936,3.092,13.61,3.056,13.287,3.056"/>
	<path fill="#FFFFFF" d="M16.872,11.526c0,0,0.546-2.187,2.947-2.164c0.878,0.016,2.255,0.187,3.338,0.141
		c0.943-0.041,1.756-0.213,1.756-0.213s-0.622,1.053-1.811,1.116c-1.424,0.076-2.866-0.345-3.955-0.14
		C17.935,10.495,16.872,11.526,16.872,11.526"/>
	<path fill="#FFFFFF" d="M12.06,3.773c0,0,1.639,0.648,2.52,3.22c0.647,1.891,0.104,4.568,0.104,4.568s1.309-2.229,0.538-4.978
		c-0.35-1.172-0.579-1.399-0.87-1.83c1.171,0.392,2.397,2.923,2.397,2.923s-0.507-2.503-1.732-3.325
		C13.792,3.529,12.06,3.773,12.06,3.773"/>
	<path fill="#010300" d="M9.397,22.069c0-0.008-0.001-0.016-0.001-0.023c0-0.259,0.202-0.47,0.45-0.47
		c0.25,0,0.451,0.211,0.451,0.47c0,0.008-0.001,0.016-0.001,0.023h0.665c0-0.008,0.001-0.016,0.001-0.023
		c0-0.643-0.5-1.163-1.116-1.163c-0.615,0-1.114,0.521-1.114,1.163c0,0.008,0.001,0.016,0.001,0.023H9.397z"/>
	<path fill="#010300" d="M17.416,22.069c-0.001-0.008-0.002-0.016-0.002-0.023c0-0.259,0.203-0.47,0.451-0.47
		c0.249,0,0.45,0.211,0.45,0.47c0,0.008-0.001,0.016-0.001,0.023h0.664c0-0.008,0.001-0.016,0.001-0.023
		c0-0.643-0.499-1.163-1.114-1.163c-0.616,0-1.115,0.521-1.115,1.163c0,0.008,0.001,0.016,0.002,0.023H17.416z"/>
	<path fill="#211915" d="M9.852,24.944c-1.71,0-3.101-1.392-3.101-3.101c0-1.71,1.391-3.101,3.101-3.101
		c1.708,0,3.1,1.391,3.1,3.101C12.951,23.553,11.56,24.944,9.852,24.944 M9.852,19.479c-1.306,0-2.366,1.061-2.366,2.365
		c0,1.304,1.061,2.367,2.366,2.367c1.304,0,2.365-1.063,2.365-2.367C12.216,20.539,11.156,19.479,9.852,19.479"/>
	<path fill="#211915" d="M17.885,24.944c-1.709,0-3.1-1.392-3.1-3.101c0-1.71,1.391-3.101,3.1-3.101c1.71,0,3.102,1.391,3.102,3.101
		C20.986,23.553,19.595,24.944,17.885,24.944 M17.885,19.479c-1.305,0-2.365,1.061-2.365,2.365c0,1.304,1.061,2.367,2.365,2.367
		c1.306,0,2.366-1.063,2.366-2.367C20.251,20.539,19.19,19.479,17.885,19.479"/>
	<path fill="#211915" d="M15.037,22.259c-0.323-0.284-0.74-0.439-1.176-0.439c-0.385,0-0.75,0.119-1.056,0.343l-0.434-0.594
		c0.433-0.316,0.949-0.483,1.49-0.483c0.613,0,1.203,0.221,1.66,0.62L15.037,22.259z"/>
</g>
</svg>
